<mxfile host="app.diagrams.net" modified="2024-02-27T09:25:49.912Z" agent="Mozilla/5.0 (Windows NT 10.0; Win64; x64) AppleWebKit/537.36 (KHTML, like Gecko) Chrome/120.0.0.0 Safari/537.36 OPR/106.0.0.0" etag="4Zy6zCQ5lOR-Y2IhTxkn" version="23.1.3" type="device">
  <diagram name="Page-1" id="RV-xkRZL8qqRmmlJCpOm">
    <mxGraphModel dx="2532" dy="903" grid="1" gridSize="10" guides="1" tooltips="1" connect="1" arrows="1" fold="1" page="1" pageScale="1" pageWidth="850" pageHeight="1100" math="0" shadow="0">
      <root>
        <mxCell id="0" />
        <mxCell id="1" parent="0" />
        <mxCell id="P-6fFEAQZA2n-YfnEMb0-53" style="edgeStyle=orthogonalEdgeStyle;rounded=0;orthogonalLoop=1;jettySize=auto;html=1;" edge="1" parent="1" source="P-6fFEAQZA2n-YfnEMb0-12" target="P-6fFEAQZA2n-YfnEMb0-52">
          <mxGeometry relative="1" as="geometry" />
        </mxCell>
        <mxCell id="P-6fFEAQZA2n-YfnEMb0-12" value="User" style="ellipse;whiteSpace=wrap;html=1;aspect=fixed;" vertex="1" parent="1">
          <mxGeometry x="385" y="370" width="80" height="80" as="geometry" />
        </mxCell>
        <mxCell id="P-6fFEAQZA2n-YfnEMb0-18" style="edgeStyle=orthogonalEdgeStyle;rounded=0;orthogonalLoop=1;jettySize=auto;html=1;" edge="1" parent="1" source="P-6fFEAQZA2n-YfnEMb0-13" target="P-6fFEAQZA2n-YfnEMb0-17">
          <mxGeometry relative="1" as="geometry" />
        </mxCell>
        <mxCell id="P-6fFEAQZA2n-YfnEMb0-13" value="Select Currency" style="rounded=1;whiteSpace=wrap;html=1;" vertex="1" parent="1">
          <mxGeometry x="365" y="570" width="120" height="60" as="geometry" />
        </mxCell>
        <mxCell id="P-6fFEAQZA2n-YfnEMb0-25" style="edgeStyle=orthogonalEdgeStyle;rounded=0;orthogonalLoop=1;jettySize=auto;html=1;entryX=1;entryY=0.5;entryDx=0;entryDy=0;" edge="1" parent="1" source="P-6fFEAQZA2n-YfnEMb0-17" target="P-6fFEAQZA2n-YfnEMb0-29">
          <mxGeometry relative="1" as="geometry">
            <mxPoint x="270" y="740" as="targetPoint" />
          </mxGeometry>
        </mxCell>
        <mxCell id="P-6fFEAQZA2n-YfnEMb0-69" style="edgeStyle=orthogonalEdgeStyle;rounded=0;orthogonalLoop=1;jettySize=auto;html=1;" edge="1" parent="1" source="P-6fFEAQZA2n-YfnEMb0-17" target="P-6fFEAQZA2n-YfnEMb0-68">
          <mxGeometry relative="1" as="geometry" />
        </mxCell>
        <mxCell id="P-6fFEAQZA2n-YfnEMb0-17" value="&lt;font style=&quot;font-size: 13px;&quot;&gt;Did the user choose a currency?&lt;/font&gt;" style="rhombus;whiteSpace=wrap;html=1;" vertex="1" parent="1">
          <mxGeometry x="350" y="700" width="150" height="150" as="geometry" />
        </mxCell>
        <mxCell id="P-6fFEAQZA2n-YfnEMb0-21" value="No" style="text;html=1;align=center;verticalAlign=middle;whiteSpace=wrap;rounded=0;" vertex="1" parent="1">
          <mxGeometry x="500" y="740" width="60" height="30" as="geometry" />
        </mxCell>
        <mxCell id="P-6fFEAQZA2n-YfnEMb0-27" value="Yes" style="text;html=1;align=center;verticalAlign=middle;whiteSpace=wrap;rounded=0;" vertex="1" parent="1">
          <mxGeometry x="300" y="745" width="50" height="30" as="geometry" />
        </mxCell>
        <mxCell id="P-6fFEAQZA2n-YfnEMb0-60" style="edgeStyle=orthogonalEdgeStyle;rounded=0;orthogonalLoop=1;jettySize=auto;html=1;" edge="1" parent="1" source="P-6fFEAQZA2n-YfnEMb0-29" target="P-6fFEAQZA2n-YfnEMb0-57">
          <mxGeometry relative="1" as="geometry" />
        </mxCell>
        <mxCell id="P-6fFEAQZA2n-YfnEMb0-29" value="Add amount" style="rounded=1;whiteSpace=wrap;html=1;" vertex="1" parent="1">
          <mxGeometry x="140" y="745" width="120" height="60" as="geometry" />
        </mxCell>
        <mxCell id="P-6fFEAQZA2n-YfnEMb0-88" style="edgeStyle=orthogonalEdgeStyle;rounded=0;orthogonalLoop=1;jettySize=auto;html=1;" edge="1" parent="1" source="P-6fFEAQZA2n-YfnEMb0-31" target="P-6fFEAQZA2n-YfnEMb0-29">
          <mxGeometry relative="1" as="geometry" />
        </mxCell>
        <mxCell id="P-6fFEAQZA2n-YfnEMb0-31" value="Return" style="rounded=1;whiteSpace=wrap;html=1;direction=west;" vertex="1" parent="1">
          <mxGeometry x="140" y="620" width="120" height="60" as="geometry" />
        </mxCell>
        <mxCell id="P-6fFEAQZA2n-YfnEMb0-38" style="edgeStyle=orthogonalEdgeStyle;rounded=0;orthogonalLoop=1;jettySize=auto;html=1;" edge="1" parent="1" source="P-6fFEAQZA2n-YfnEMb0-36" target="P-6fFEAQZA2n-YfnEMb0-79">
          <mxGeometry relative="1" as="geometry">
            <mxPoint x="-280" y="920" as="targetPoint" />
          </mxGeometry>
        </mxCell>
        <mxCell id="P-6fFEAQZA2n-YfnEMb0-93" style="edgeStyle=orthogonalEdgeStyle;rounded=0;orthogonalLoop=1;jettySize=auto;html=1;entryX=0;entryY=1;entryDx=0;entryDy=0;" edge="1" parent="1" source="P-6fFEAQZA2n-YfnEMb0-36" target="P-6fFEAQZA2n-YfnEMb0-86">
          <mxGeometry relative="1" as="geometry" />
        </mxCell>
        <mxCell id="P-6fFEAQZA2n-YfnEMb0-36" value="Was the entered &lt;br&gt;amount an&lt;br&gt;Integer?" style="rhombus;whiteSpace=wrap;html=1;" vertex="1" parent="1">
          <mxGeometry x="-365.34" y="695" width="170.67" height="160" as="geometry" />
        </mxCell>
        <mxCell id="P-6fFEAQZA2n-YfnEMb0-49" style="edgeStyle=orthogonalEdgeStyle;rounded=0;orthogonalLoop=1;jettySize=auto;html=1;" edge="1" parent="1" source="P-6fFEAQZA2n-YfnEMb0-47" target="P-6fFEAQZA2n-YfnEMb0-48">
          <mxGeometry relative="1" as="geometry">
            <Array as="points">
              <mxPoint x="880" y="600" />
            </Array>
          </mxGeometry>
        </mxCell>
        <mxCell id="P-6fFEAQZA2n-YfnEMb0-47" value="Get rates" style="rounded=1;whiteSpace=wrap;html=1;" vertex="1" parent="1">
          <mxGeometry x="820" y="745" width="120" height="60" as="geometry" />
        </mxCell>
        <mxCell id="P-6fFEAQZA2n-YfnEMb0-50" style="edgeStyle=orthogonalEdgeStyle;rounded=0;orthogonalLoop=1;jettySize=auto;html=1;" edge="1" parent="1" source="P-6fFEAQZA2n-YfnEMb0-48" target="P-6fFEAQZA2n-YfnEMb0-13">
          <mxGeometry relative="1" as="geometry" />
        </mxCell>
        <mxCell id="P-6fFEAQZA2n-YfnEMb0-48" value="Return" style="rounded=1;whiteSpace=wrap;html=1;" vertex="1" parent="1">
          <mxGeometry x="605" y="570" width="120" height="60" as="geometry" />
        </mxCell>
        <mxCell id="P-6fFEAQZA2n-YfnEMb0-51" value="Show results" style="ellipse;whiteSpace=wrap;html=1;aspect=fixed;" vertex="1" parent="1">
          <mxGeometry x="-90" y="955" width="80" height="80" as="geometry" />
        </mxCell>
        <mxCell id="P-6fFEAQZA2n-YfnEMb0-54" style="edgeStyle=orthogonalEdgeStyle;rounded=0;orthogonalLoop=1;jettySize=auto;html=1;" edge="1" parent="1" source="P-6fFEAQZA2n-YfnEMb0-52" target="P-6fFEAQZA2n-YfnEMb0-13">
          <mxGeometry relative="1" as="geometry" />
        </mxCell>
        <mxCell id="P-6fFEAQZA2n-YfnEMb0-52" value="Start" style="rounded=1;whiteSpace=wrap;html=1;" vertex="1" parent="1">
          <mxGeometry x="365" y="480" width="120" height="60" as="geometry" />
        </mxCell>
        <mxCell id="P-6fFEAQZA2n-YfnEMb0-85" style="edgeStyle=orthogonalEdgeStyle;rounded=0;orthogonalLoop=1;jettySize=auto;html=1;" edge="1" parent="1" source="P-6fFEAQZA2n-YfnEMb0-57" target="P-6fFEAQZA2n-YfnEMb0-36">
          <mxGeometry relative="1" as="geometry" />
        </mxCell>
        <mxCell id="P-6fFEAQZA2n-YfnEMb0-92" style="edgeStyle=orthogonalEdgeStyle;rounded=0;orthogonalLoop=1;jettySize=auto;html=1;entryX=1;entryY=1;entryDx=0;entryDy=0;" edge="1" parent="1" source="P-6fFEAQZA2n-YfnEMb0-57" target="P-6fFEAQZA2n-YfnEMb0-86">
          <mxGeometry relative="1" as="geometry" />
        </mxCell>
        <mxCell id="P-6fFEAQZA2n-YfnEMb0-57" value="Did the user enter&lt;br&gt;an amount?" style="rhombus;whiteSpace=wrap;html=1;" vertex="1" parent="1">
          <mxGeometry x="-110" y="693.75" width="162.5" height="162.5" as="geometry" />
        </mxCell>
        <mxCell id="P-6fFEAQZA2n-YfnEMb0-89" style="edgeStyle=orthogonalEdgeStyle;rounded=0;orthogonalLoop=1;jettySize=auto;html=1;entryX=0.5;entryY=1;entryDx=0;entryDy=0;" edge="1" parent="1" source="P-6fFEAQZA2n-YfnEMb0-62" target="P-6fFEAQZA2n-YfnEMb0-31">
          <mxGeometry relative="1" as="geometry" />
        </mxCell>
        <mxCell id="P-6fFEAQZA2n-YfnEMb0-62" value="Get rates" style="rounded=1;whiteSpace=wrap;html=1;" vertex="1" parent="1">
          <mxGeometry y="535" width="120" height="60" as="geometry" />
        </mxCell>
        <mxCell id="P-6fFEAQZA2n-YfnEMb0-70" style="edgeStyle=orthogonalEdgeStyle;rounded=0;orthogonalLoop=1;jettySize=auto;html=1;" edge="1" parent="1" source="P-6fFEAQZA2n-YfnEMb0-68" target="P-6fFEAQZA2n-YfnEMb0-47">
          <mxGeometry relative="1" as="geometry" />
        </mxCell>
        <mxCell id="P-6fFEAQZA2n-YfnEMb0-76" style="edgeStyle=orthogonalEdgeStyle;rounded=0;orthogonalLoop=1;jettySize=auto;html=1;" edge="1" parent="1" source="P-6fFEAQZA2n-YfnEMb0-68" target="P-6fFEAQZA2n-YfnEMb0-74">
          <mxGeometry relative="1" as="geometry" />
        </mxCell>
        <mxCell id="P-6fFEAQZA2n-YfnEMb0-68" value="&lt;font style=&quot;font-size: 13px;&quot;&gt;Did the user press get rates?&lt;/font&gt;" style="rhombus;whiteSpace=wrap;html=1;" vertex="1" parent="1">
          <mxGeometry x="590" y="700" width="150" height="150" as="geometry" />
        </mxCell>
        <mxCell id="P-6fFEAQZA2n-YfnEMb0-71" value="Yes" style="text;html=1;align=center;verticalAlign=middle;whiteSpace=wrap;rounded=0;" vertex="1" parent="1">
          <mxGeometry x="740" y="740" width="70" height="30" as="geometry" />
        </mxCell>
        <mxCell id="P-6fFEAQZA2n-YfnEMb0-74" value="Do nothing" style="rounded=1;whiteSpace=wrap;html=1;" vertex="1" parent="1">
          <mxGeometry x="605" y="910" width="120" height="60" as="geometry" />
        </mxCell>
        <mxCell id="P-6fFEAQZA2n-YfnEMb0-77" value="No" style="text;html=1;align=center;verticalAlign=middle;whiteSpace=wrap;rounded=0;" vertex="1" parent="1">
          <mxGeometry x="670" y="860" width="60" height="30" as="geometry" />
        </mxCell>
        <mxCell id="P-6fFEAQZA2n-YfnEMb0-78" value="Yes" style="text;html=1;align=center;verticalAlign=middle;whiteSpace=wrap;rounded=0;" vertex="1" parent="1">
          <mxGeometry x="-280" y="870" width="50" height="30" as="geometry" />
        </mxCell>
        <mxCell id="P-6fFEAQZA2n-YfnEMb0-80" style="edgeStyle=orthogonalEdgeStyle;rounded=0;orthogonalLoop=1;jettySize=auto;html=1;" edge="1" parent="1" source="P-6fFEAQZA2n-YfnEMb0-79" target="P-6fFEAQZA2n-YfnEMb0-51">
          <mxGeometry relative="1" as="geometry" />
        </mxCell>
        <mxCell id="P-6fFEAQZA2n-YfnEMb0-82" style="edgeStyle=orthogonalEdgeStyle;rounded=0;orthogonalLoop=1;jettySize=auto;html=1;" edge="1" parent="1" source="P-6fFEAQZA2n-YfnEMb0-79" target="P-6fFEAQZA2n-YfnEMb0-81">
          <mxGeometry relative="1" as="geometry" />
        </mxCell>
        <mxCell id="P-6fFEAQZA2n-YfnEMb0-79" value="&lt;font style=&quot;font-size: 13px;&quot;&gt;Did the user press get rates?&lt;/font&gt;" style="rhombus;whiteSpace=wrap;html=1;" vertex="1" parent="1">
          <mxGeometry x="-355" y="920" width="150" height="150" as="geometry" />
        </mxCell>
        <mxCell id="P-6fFEAQZA2n-YfnEMb0-81" value="Do nothing" style="rounded=1;whiteSpace=wrap;html=1;" vertex="1" parent="1">
          <mxGeometry x="-580" y="965" width="120" height="60" as="geometry" />
        </mxCell>
        <mxCell id="P-6fFEAQZA2n-YfnEMb0-83" value="Yes" style="text;html=1;align=center;verticalAlign=middle;whiteSpace=wrap;rounded=0;" vertex="1" parent="1">
          <mxGeometry x="-180" y="965" width="50" height="30" as="geometry" />
        </mxCell>
        <mxCell id="P-6fFEAQZA2n-YfnEMb0-84" value="No" style="text;html=1;align=center;verticalAlign=middle;whiteSpace=wrap;rounded=0;" vertex="1" parent="1">
          <mxGeometry x="-425" y="965" width="50" height="30" as="geometry" />
        </mxCell>
        <mxCell id="P-6fFEAQZA2n-YfnEMb0-90" style="edgeStyle=orthogonalEdgeStyle;rounded=0;orthogonalLoop=1;jettySize=auto;html=1;" edge="1" parent="1" source="P-6fFEAQZA2n-YfnEMb0-86" target="P-6fFEAQZA2n-YfnEMb0-87">
          <mxGeometry relative="1" as="geometry" />
        </mxCell>
        <mxCell id="P-6fFEAQZA2n-YfnEMb0-91" style="edgeStyle=orthogonalEdgeStyle;rounded=0;orthogonalLoop=1;jettySize=auto;html=1;entryX=0;entryY=0.5;entryDx=0;entryDy=0;" edge="1" parent="1" source="P-6fFEAQZA2n-YfnEMb0-86" target="P-6fFEAQZA2n-YfnEMb0-62">
          <mxGeometry relative="1" as="geometry" />
        </mxCell>
        <mxCell id="P-6fFEAQZA2n-YfnEMb0-86" value="&lt;font style=&quot;font-size: 13px;&quot;&gt;Did the user press get rates?&lt;/font&gt;" style="rhombus;whiteSpace=wrap;html=1;" vertex="1" parent="1">
          <mxGeometry x="-230" y="490" width="150" height="150" as="geometry" />
        </mxCell>
        <mxCell id="P-6fFEAQZA2n-YfnEMb0-87" value="Do nothing" style="rounded=1;whiteSpace=wrap;html=1;" vertex="1" parent="1">
          <mxGeometry x="-450" y="535" width="120" height="60" as="geometry" />
        </mxCell>
        <mxCell id="P-6fFEAQZA2n-YfnEMb0-94" value="Yes" style="text;html=1;align=center;verticalAlign=middle;whiteSpace=wrap;rounded=0;" vertex="1" parent="1">
          <mxGeometry x="-180" y="740" width="50" height="30" as="geometry" />
        </mxCell>
        <mxCell id="P-6fFEAQZA2n-YfnEMb0-95" value="No" style="text;html=1;align=center;verticalAlign=middle;whiteSpace=wrap;rounded=0;" vertex="1" parent="1">
          <mxGeometry x="-90" y="635" width="50" height="30" as="geometry" />
        </mxCell>
        <mxCell id="P-6fFEAQZA2n-YfnEMb0-96" value="No" style="text;html=1;align=center;verticalAlign=middle;whiteSpace=wrap;rounded=0;" vertex="1" parent="1">
          <mxGeometry x="-260" y="635" width="50" height="30" as="geometry" />
        </mxCell>
        <mxCell id="P-6fFEAQZA2n-YfnEMb0-97" value="No" style="text;html=1;align=center;verticalAlign=middle;whiteSpace=wrap;rounded=0;" vertex="1" parent="1">
          <mxGeometry x="-305" y="530" width="50" height="30" as="geometry" />
        </mxCell>
        <mxCell id="P-6fFEAQZA2n-YfnEMb0-98" value="Yes" style="text;html=1;align=center;verticalAlign=middle;whiteSpace=wrap;rounded=0;" vertex="1" parent="1">
          <mxGeometry x="-70" y="530" width="50" height="30" as="geometry" />
        </mxCell>
      </root>
    </mxGraphModel>
  </diagram>
</mxfile>
